<?xml version="1.0" standalone="no"?>
<!DOCTYPE svg PUBLIC "-//W3C//DTD SVG 20010904//EN"
 "http://www.w3.org/TR/2001/REC-SVG-20010904/DTD/svg10.dtd">
<svg version="1.0" xmlns="http://www.w3.org/2000/svg"
 width="1987.000000pt" height="1987.000000pt" viewBox="0 0 1987.000000 1987.000000"
 preserveAspectRatio="xMidYMid meet">
<metadata>
Created by potrace 1.14, written by Peter Selinger 2001-2017
</metadata>
<g transform="translate(0.000000,1987.000000) scale(0.100000,-0.100000)"
fill="#000000" stroke="none">
<path d="M10588 12804 c-2 -1 -50 -5 -108 -8 -131 -7 -325 -23 -325 -26 0 -1
-16 -3 -35 -5 -108 -12 -129 -14 -165 -20 -22 -3 -46 -8 -53 -10 -7 -3 -31 -7
-55 -10 -49 -7 -82 -13 -82 -15 0 -1 -16 -3 -35 -6 -19 -2 -46 -7 -60 -10 -33
-9 -41 -11 -70 -18 -14 -3 -36 -8 -50 -11 -14 -3 -34 -8 -45 -10 -11 -2 -45
-10 -75 -19 -30 -8 -66 -18 -80 -22 -14 -3 -32 -8 -40 -11 -21 -8 -33 -12 -50
-16 -39 -8 -160 -51 -160 -57 0 -3 39 -44 86 -90 108 -107 112 -114 77 -137
-16 -10 -30 -20 -33 -24 -3 -3 -20 -12 -37 -20 -18 -8 -33 -17 -33 -21 0 -5
-6 -8 -14 -8 -7 0 -19 -7 -26 -15 -7 -8 -16 -12 -21 -9 -5 3 -9 2 -9 -3 0 -4
-15 -14 -32 -22 -18 -8 -35 -18 -38 -21 -3 -4 -23 -17 -45 -29 -22 -12 -53
-30 -70 -41 -16 -11 -48 -29 -70 -41 -22 -12 -43 -27 -47 -33 -4 -6 -8 -7 -8
-2 0 5 -8 2 -17 -6 -10 -8 -96 -62 -191 -119 -95 -57 -184 -111 -197 -119 -13
-8 -58 -35 -99 -60 -42 -25 -76 -48 -76 -52 0 -5 -5 -8 -11 -8 -5 0 -47 -24
-92 -53 -74 -48 -170 -109 -221 -140 -11 -7 -25 -16 -30 -20 -6 -4 -90 -61
-187 -125 -223 -150 -397 -279 -455 -338 -33 -34 -54 -41 -139 -48 -90 -7
-302 -8 -355 -1 -19 3 -53 7 -75 9 -184 19 -359 79 -485 165 -42 29 -64 38
-90 36 -106 -8 -255 -22 -255 -24 0 -1 -27 -4 -60 -6 -33 -2 -78 -6 -100 -9
-22 -3 -67 -8 -100 -11 -33 -4 -71 -8 -85 -10 -14 -2 -56 -7 -95 -11 -38 -3
-79 -8 -90 -10 -11 -3 -49 -7 -85 -10 -36 -3 -76 -7 -90 -10 -14 -3 -45 -7
-70 -9 -65 -7 -122 -14 -147 -19 -12 -3 -50 -7 -85 -10 -34 -3 -76 -9 -93 -12
-16 -3 -43 -7 -60 -9 -31 -3 -112 -14 -155 -21 -25 -4 -105 -14 -150 -19 -14
-2 -25 -4 -25 -5 0 -1 -13 -3 -30 -4 -26 -3 -59 -8 -150 -21 -11 -2 -51 -8
-90 -15 -38 -6 -83 -13 -100 -15 -16 -3 -102 -18 -190 -35 -88 -17 -173 -33
-190 -35 -48 -7 -214 -45 -290 -67 -38 -11 -74 -20 -80 -21 -5 -2 -14 -5 -20
-8 -5 -3 -39 -7 -75 -8 -115 -4 -298 -33 -325 -51 -5 -4 -23 -10 -40 -13 -16
-3 -48 -14 -70 -23 -22 -10 -42 -18 -45 -19 -25 -5 -80 -31 -80 -37 0 -4 -3
-7 -7 -6 -10 2 -170 -78 -183 -92 -3 -3 -30 -21 -60 -40 -30 -19 -60 -39 -66
-45 -6 -5 -22 -17 -34 -25 -30 -20 -137 -107 -180 -147 -19 -18 -48 -35 -65
-39 -16 -3 -75 -20 -130 -37 -55 -17 -104 -32 -110 -33 -22 -5 -154 -57 -210
-83 -33 -15 -84 -38 -112 -51 -29 -13 -53 -27 -53 -32 0 -4 -3 -7 -7 -6 -33 9
-357 -208 -502 -337 -44 -38 -177 -172 -213 -213 l-28 -32 6 -127 c11 -229 12
-248 13 -248 1 0 3 -42 6 -94 4 -93 10 -179 22 -296 15 -156 16 -150 -47 -234
-31 -42 -67 -92 -78 -112 l-21 -35 92 -39 c51 -21 96 -42 101 -47 6 -4 19 -8
31 -8 12 0 25 -4 31 -9 11 -10 276 -95 329 -105 11 -2 40 -10 65 -17 43 -11
56 -15 98 -22 9 -2 26 -6 37 -10 11 -3 34 -9 50 -12 30 -5 57 -10 105 -20 42
-9 193 -34 235 -40 22 -3 69 -10 105 -15 36 -5 86 -12 113 -15 26 -3 66 -7 90
-10 152 -19 373 -33 624 -41 l193 -6 0 126 c0 70 4 135 9 145 7 13 24 17 64
19 29 0 58 2 63 3 5 1 24 -2 42 -6 32 -7 56 -34 79 -85 53 -118 77 -159 172
-289 65 -90 203 -230 291 -296 36 -27 67 -53 68 -57 2 -4 8 -8 12 -8 5 0 29
-14 54 -30 84 -57 331 -164 406 -175 8 -1 22 -5 30 -8 8 -3 22 -6 30 -6 8 -1
60 -9 115 -19 104 -18 333 -23 445 -8 107 14 371 86 390 106 3 3 50 28 104 55
159 79 357 239 466 374 19 24 40 48 45 55 6 6 30 40 54 76 25 36 52 77 62 92
24 35 79 149 79 163 0 21 25 45 51 50 14 3 62 7 107 9 112 5 123 -3 116 -92
-2 -37 -6 -80 -8 -97 l-4 -30 532 -2 c292 0 947 -4 1456 -7 1045 -7 937 -7
1012 -4 32 2 58 -1 58 -5 0 -4 8 -4 18 1 19 9 54 8 71 -2 6 -4 11 -3 11 3 0 7
8 7 23 2 12 -5 31 -5 42 -1 11 4 23 6 28 3 4 -2 415 -6 915 -9 499 -2 1296 -6
1772 -8 476 -3 978 -5 1116 -6 296 -2 297 -2 292 70 -2 27 -6 52 -9 54 -3 3
-3 21 -1 40 5 42 12 44 157 42 106 -1 110 -2 113 -23 2 -13 8 -23 13 -23 5 0
9 -6 9 -14 0 -16 80 -159 92 -164 4 -2 8 -8 8 -13 0 -9 57 -90 104 -148 31
-38 202 -211 209 -211 3 0 18 -11 33 -25 33 -31 160 -115 173 -115 5 0 11 -4
13 -8 5 -13 169 -89 252 -116 98 -33 205 -59 254 -60 12 -1 22 -3 22 -6 0 -21
410 -17 520 5 14 3 40 8 59 11 19 3 45 10 58 15 13 5 23 6 23 3 0 -4 7 -1 15
6 8 7 15 10 15 7 0 -3 15 0 33 8 17 7 37 14 42 15 24 6 46 15 142 61 164 79
276 161 415 302 105 107 194 230 270 374 35 66 64 110 77 115 12 4 21 3 21 -2
0 -5 6 -7 13 -5 6 2 85 6 175 9 158 4 163 3 177 -18 7 -11 15 -39 17 -61 4
-37 6 -40 34 -39 30 1 146 14 175 19 9 2 40 6 70 10 30 3 81 10 114 15 33 5
78 12 100 15 22 3 55 8 73 11 44 7 131 17 160 18 12 1 22 3 22 6 0 3 10 5 23
6 23 0 103 10 147 19 14 2 45 6 70 9 25 3 54 8 65 10 11 2 43 7 70 10 89 11
140 18 160 23 11 2 36 6 55 8 19 2 49 6 65 9 17 2 49 7 73 10 23 3 61 9 85 12
23 4 53 8 67 9 14 2 41 6 61 9 20 4 51 8 71 10 56 6 138 34 138 48 0 5 6 8 13
8 7 0 62 52 122 116 61 64 141 148 178 187 88 93 134 162 151 229 15 60 13 82
-15 186 -25 89 -26 232 -5 407 3 22 8 63 11 90 3 28 10 76 16 107 5 32 12 76
14 98 2 22 6 44 9 49 13 20 18 211 7 266 -23 115 -52 159 -194 295 -197 188
-254 246 -294 300 -41 57 -73 127 -66 146 10 27 -48 46 -452 148 l-290 72 4
40 c2 21 4 55 5 74 1 40 28 35 -219 41 -77 2 -143 7 -146 11 -3 5 -4 46 -3 91
l3 84 -57 -8 c-31 -4 -79 -10 -107 -14 -27 -3 -70 -8 -95 -12 -25 -3 -61 -6
-80 -7 l-35 -1 1 114 2 113 -37 -5 c-20 -3 -47 -8 -61 -11 -14 -4 -36 -8 -50
-11 -53 -10 -76 -15 -105 -22 -45 -10 -69 -5 -205 44 -114 41 -331 116 -455
158 -27 9 -57 19 -65 22 -8 3 -19 7 -25 9 -24 6 -202 65 -220 73 -11 5 -67 23
-125 41 -58 18 -114 36 -125 40 -11 5 -81 27 -155 50 -74 23 -142 44 -150 47
-8 3 -19 7 -25 8 -23 6 -292 88 -310 95 -19 8 -153 48 -185 56 -14 3 -232 66
-445 129 -49 15 -98 28 -108 30 -10 2 -27 7 -37 10 -10 3 -27 8 -37 10 -10 2
-49 13 -88 25 -38 12 -81 23 -95 26 -14 2 -32 7 -40 10 -12 5 -106 30 -252 69
-17 5 -47 12 -78 20 -8 2 -15 4 -15 5 0 1 -9 3 -20 5 -11 2 -135 33 -275 69
-140 36 -256 65 -257 65 -2 1 -4 1 -5 2 -2 0 -14 3 -28 5 -14 2 -52 11 -85 19
-33 8 -91 22 -130 30 -38 8 -79 18 -90 20 -11 3 -36 8 -55 11 -35 7 -49 9 -92
19 -38 8 -121 25 -148 30 -14 3 -36 7 -50 10 -14 2 -41 7 -60 10 -33 5 -53 9
-110 20 -14 3 -41 7 -60 10 -19 2 -35 4 -35 5 0 3 -43 10 -180 30 -44 6 -93
14 -110 16 -16 3 -48 7 -70 9 -22 3 -51 7 -65 9 -42 8 -121 17 -270 31 -25 2
-74 7 -110 10 -36 4 -92 9 -125 11 -33 2 -89 6 -125 9 -70 6 -718 14 -722 9z
m742 -439 c74 -4 155 -8 180 -10 25 -2 80 -6 122 -9 43 -3 89 -8 103 -10 14
-3 54 -8 88 -11 103 -10 210 -23 257 -31 19 -3 44 -7 55 -8 164 -23 197 -30
210 -50 16 -23 14 -30 -85 -346 -85 -271 -101 -322 -120 -385 -10 -33 -29 -96
-43 -140 -14 -44 -44 -141 -67 -215 -23 -74 -45 -139 -49 -143 -7 -7 -81 -11
-456 -22 -88 -2 -216 -7 -285 -9 -232 -9 -534 -18 -667 -20 -73 0 -133 -3
-133 -6 0 -3 -48 -6 -108 -6 -59 -1 -195 -4 -302 -8 -107 -4 -256 -9 -330 -11
-74 -3 -202 -7 -285 -10 -82 -3 -226 -8 -320 -10 -93 -3 -192 -7 -218 -9 -26
-1 -50 1 -53 5 -3 5 -7 35 -9 68 -7 88 -70 258 -109 290 -9 7 -16 18 -16 23 0
14 -60 70 -105 98 -81 48 -228 29 -386 -51 -133 -66 -315 -232 -421 -383 -27
-39 -57 -74 -66 -77 -9 -3 -63 -7 -118 -8 -88 -2 -102 0 -108 15 -4 10 0 24
10 35 16 18 131 99 140 99 5 0 19 11 49 38 7 6 16 12 20 12 9 0 190 123 193
132 2 4 7 8 12 8 9 0 195 123 223 148 9 8 17 11 17 6 0 -5 4 -4 8 1 7 11 520
353 559 374 12 6 28 17 35 23 13 12 33 25 83 52 11 6 22 14 25 17 14 15 390
219 390 211 0 -4 4 -2 8 4 4 5 23 17 42 26 19 9 66 30 105 48 85 40 277 111
335 125 8 2 49 12 90 23 41 11 89 23 105 26 17 3 59 10 95 16 36 7 78 13 93
15 15 2 44 7 65 10 98 14 283 29 502 40 74 4 136 8 137 9 4 4 382 -3 503 -9z
m1580 -230 c66 -17 86 -22 118 -29 9 -2 64 -16 122 -31 58 -15 112 -28 120
-30 8 -2 42 -11 75 -20 78 -22 126 -35 147 -40 32 -7 433 -125 448 -132 8 -3
24 -8 35 -10 11 -1 29 -7 40 -12 17 -8 172 -60 200 -68 6 -1 42 -14 80 -28 39
-15 99 -37 135 -50 123 -44 412 -175 430 -194 3 -4 21 -15 40 -25 119 -65 167
-144 118 -195 -19 -21 -93 -59 -128 -66 -39 -7 -107 -18 -130 -20 -14 -1 -54
-5 -90 -8 -36 -4 -92 -9 -125 -12 -33 -3 -89 -8 -125 -11 -36 -3 -92 -8 -125
-9 -33 -2 -89 -6 -125 -9 -144 -13 -333 -27 -545 -41 -38 -2 -106 -7 -150 -10
-72 -5 -120 -9 -295 -19 -193 -13 -338 -19 -425 -20 -96 -1 -100 0 -112 24 -8
17 -9 28 -1 37 7 9 7 13 -1 13 -7 0 -10 4 -6 10 3 5 8 44 10 87 7 110 14 199
20 263 3 30 7 89 10 130 2 41 6 100 10 130 7 72 13 143 21 264 3 54 8 106 9
115 2 9 4 19 4 23 3 21 92 18 191 -7z m-810 -1144 c97 -99 197 -280 215 -391
10 -59 10 -221 0 -285 -4 -27 -9 -59 -10 -70 -2 -11 -4 -21 -5 -22 -2 -2 -4
-12 -5 -23 -1 -11 -3 -21 -5 -22 -1 -2 -3 -10 -5 -18 -20 -85 -66 -229 -98
-310 -6 -14 -11 -27 -12 -30 -10 -30 -42 -101 -117 -260 -33 -69 -59 -127 -58
-129 1 -2 -2 -7 -7 -10 -5 -3 -33 -51 -63 -106 -29 -55 -56 -102 -59 -105 -10
-8 -31 -44 -37 -62 -4 -10 -10 -18 -15 -18 -5 0 -9 -5 -9 -11 0 -9 -17 -31
-123 -164 -52 -64 -196 -206 -277 -271 -83 -67 -230 -167 -230 -156 0 4 -4 2
-8 -4 -4 -6 -47 -30 -97 -54 -49 -23 -102 -49 -117 -57 -15 -7 -31 -14 -35
-13 -10 0 -71 -18 -98 -30 -20 -9 -64 -20 -100 -27 -11 -2 -45 -8 -75 -14 -59
-12 -141 -15 -635 -24 -993 -17 -1675 -31 -2470 -50 -551 -13 -721 -16 -742
-10 -25 6 -30 26 -38 135 -3 41 -8 100 -10 130 -3 30 -7 84 -10 120 -2 36 -6
94 -9 130 -3 36 -8 94 -10 130 -9 116 -17 224 -21 270 -2 25 -7 88 -10 140 -9
135 -12 160 -18 167 -3 3 -2 15 3 28 5 13 6 26 2 29 -7 8 -8 14 -17 166 -13
221 -7 434 15 509 5 17 6 31 4 31 -3 0 -2 6 3 13 4 6 8 14 9 17 11 67 91 247
150 337 92 141 247 314 278 309 40 -6 31 -24 -55 -115 -50 -52 -104 -115 -121
-140 -18 -25 -34 -48 -37 -51 -23 -20 -112 -204 -126 -260 -1 -3 -5 -14 -9
-25 -22 -56 -36 -114 -53 -210 -9 -53 -9 -308 0 -365 9 -54 15 -119 22 -220 2
-41 7 -100 10 -130 2 -30 7 -91 10 -135 3 -44 8 -105 11 -135 2 -30 7 -86 9
-125 3 -38 7 -97 10 -130 3 -33 7 -91 10 -130 8 -114 14 -180 15 -180 1 0 3
-40 6 -90 4 -92 17 -140 37 -148 7 -2 73 -3 147 -1 186 4 651 13 975 20 149 3
353 7 455 8 102 2 190 5 195 6 6 1 12 2 15 1 13 -5 120 -5 120 -1 0 3 87 6
193 7 105 1 372 4 592 8 220 3 522 8 670 10 149 2 288 7 310 10 22 3 69 11
105 16 36 5 83 15 105 21 22 6 42 12 45 13 28 5 156 52 158 57 2 5 10 8 17 8
14 0 118 47 170 78 37 21 188 123 195 131 3 3 23 19 45 36 58 43 246 228 275
272 14 20 30 42 36 48 21 21 114 163 114 174 0 6 3 11 8 11 4 0 22 28 40 63
18 34 37 69 42 77 27 42 151 309 242 520 10 25 23 54 28 65 14 32 61 168 66
190 16 84 24 124 29 150 7 37 7 180 0 218 -33 179 -81 278 -194 395 -28 29
-51 57 -51 62 0 5 7 15 15 24 19 18 41 11 75 -23z m-8989 -332 c4 -7 5 -19 1
-28 -8 -24 -81 -108 -170 -197 -128 -126 -166 -160 -270 -236 -53 -40 -101
-76 -107 -80 -10 -9 -49 -34 -165 -105 -100 -62 -350 -180 -350 -165 0 4 -4 2
-8 -3 -4 -6 -25 -16 -47 -23 -268 -83 -345 -94 -345 -46 0 46 246 294 420 424
19 14 42 33 52 43 10 9 20 17 21 17 2 0 62 38 132 85 144 95 369 210 490 250
44 15 87 30 95 33 8 3 20 7 25 8 6 2 46 12 90 23 84 20 123 20 136 0z m15707
-152 c28 -18 107 -192 137 -300 11 -41 11 -49 -2 -62 -8 -8 -20 -15 -26 -16
-189 -9 -1243 -17 -1287 -9 -25 5 -61 11 -81 14 -20 3 -49 10 -65 17 -16 6
-36 12 -44 14 -60 12 -269 112 -293 139 -22 25 -9 34 60 41 26 2 72 7 101 10
28 3 76 7 105 10 50 5 91 10 167 20 19 3 58 7 85 10 56 6 113 13 165 20 19 2
63 7 97 10 34 3 70 7 80 9 16 3 45 7 188 22 28 3 61 7 75 9 14 1 72 8 130 14
58 7 116 14 130 16 14 2 46 5 73 6 26 2 47 5 47 8 0 9 144 7 158 -2z m-3593
-617 c0 0 25 -3 55 -5 30 -3 64 -7 75 -9 93 -20 165 -40 210 -57 30 -11 58
-20 61 -19 4 1 10 -2 13 -7 3 -4 35 -23 71 -41 65 -33 101 -53 110 -62 3 -3
25 -19 49 -35 65 -43 224 -204 266 -267 6 -8 27 -39 47 -70 20 -30 53 -88 73
-129 20 -41 41 -82 46 -91 5 -10 9 -26 9 -36 0 -10 4 -22 9 -27 8 -10 44 -138
56 -205 12 -61 14 -292 4 -355 -5 -33 -11 -73 -14 -90 -2 -16 -14 -61 -25
-100 -11 -38 -23 -79 -25 -90 -7 -30 -116 -250 -126 -253 -5 -2 -9 -8 -9 -14
0 -17 -99 -139 -177 -217 -40 -40 -73 -71 -73 -68 0 3 -12 -5 -27 -19 -30 -28
-145 -99 -213 -132 -43 -20 -193 -77 -215 -81 -5 -1 -26 -6 -45 -11 -19 -5
-51 -11 -70 -14 -19 -4 -53 -9 -75 -13 -22 -5 -114 -8 -205 -8 -165 0 -255 15
-356 56 -16 7 -31 13 -34 14 -3 0 -15 6 -27 13 -13 7 -23 10 -23 6 0 -4 -8 -1
-17 8 -10 8 -31 20 -47 27 -27 11 -134 78 -146 91 -3 3 -23 18 -45 34 -86 63
-295 293 -295 324 0 7 -4 12 -9 12 -5 0 -13 9 -16 20 -3 11 -12 26 -18 32 -20
21 -85 161 -112 243 -40 118 -51 199 -49 351 2 82 5 160 9 174 3 14 8 41 11
60 10 67 48 196 81 278 55 139 121 248 213 356 53 62 165 166 179 166 5 0 11
4 13 9 5 13 106 75 188 114 88 42 232 91 310 106 30 6 66 13 80 16 14 3 63 8
110 11 46 3 85 6 87 7 2 3 58 0 58 -3z m-10620 -14 c17 -3 41 -9 55 -12 14 -3
35 -8 47 -10 12 -2 35 -9 50 -16 16 -6 36 -13 45 -14 78 -16 345 -162 452
-249 227 -183 393 -488 433 -795 9 -72 9 -219 -1 -295 -34 -278 -195 -573
-446 -823 -40 -40 -114 -92 -129 -92 -6 0 -11 -3 -11 -7 0 -7 -38 -26 -200
-103 -47 -22 -232 -68 -310 -76 -37 -4 -210 -4 -245 0 -75 8 -131 19 -146 27
-9 4 -19 6 -21 4 -3 -3 -34 3 -69 14 -35 10 -73 21 -84 24 -90 24 -246 95
-289 132 -16 14 -32 25 -35 25 -7 0 -178 167 -222 216 -122 135 -237 371 -274
559 -20 102 -25 271 -11 380 6 49 37 190 50 230 2 6 5 15 6 20 15 55 113 279
130 295 3 3 18 25 35 50 47 72 233 250 320 307 44 29 87 58 96 64 10 7 19 10
20 9 2 -2 22 8 44 22 22 14 88 41 145 61 104 35 128 41 205 53 22 3 42 8 44 9
5 6 283 -2 316 -9z m-3415 -555 c25 -5 55 -12 68 -15 51 -12 165 -78 212 -122
53 -50 100 -122 124 -191 l14 -39 -204 1 c-111 0 -217 -3 -235 -8 -28 -7 -31
-11 -25 -37 10 -52 -3 -55 -193 -55 -184 0 -189 2 -192 53 -1 12 -3 27 -4 32
-1 6 -3 16 -4 23 0 8 -19 32 -41 55 -34 34 -40 47 -40 82 0 116 91 198 250
225 73 13 202 11 270 -4z m-84 -516 c51 -7 60 -25 63 -122 2 -60 -1 -73 -16
-81 -10 -5 -85 -8 -166 -8 -135 1 -150 3 -163 21 -8 10 -14 30 -15 44 0 14 -2
33 -4 41 -17 66 -15 117 4 106 4 -3 12 -1 19 3 13 8 212 5 278 -4z m17 -259
c28 -7 28 -13 4 -70 -9 -21 -17 -40 -17 -43 0 -6 -22 -32 -57 -66 -52 -51
-172 -88 -174 -54 -1 14 -3 29 -19 99 -6 29 -13 69 -16 90 -6 42 0 45 80 47
27 1 51 2 52 4 5 5 122 0 147 -7z"/>
<path d="M15050 9789 c-96 -15 -118 -19 -180 -34 -36 -9 -69 -17 -75 -18 -5
-2 -16 -6 -22 -10 -7 -5 -13 -5 -13 -1 0 3 -6 2 -12 -3 -7 -6 -31 -16 -53 -23
-64 -20 -174 -80 -255 -139 -185 -135 -321 -326 -394 -556 -23 -72 -31 -105
-51 -210 -10 -49 -13 -276 -5 -335 10 -73 19 -109 31 -132 5 -10 8 -18 5 -18
-14 0 118 -281 157 -334 101 -139 172 -218 247 -275 19 -14 41 -32 48 -38 7
-7 17 -13 22 -13 5 0 15 -7 24 -15 15 -15 154 -83 211 -102 71 -24 102 -32
184 -48 73 -14 150 -19 266 -18 147 0 195 6 295 33 25 7 50 13 55 14 6 1 16 5
23 9 7 5 23 10 35 13 13 2 57 20 98 40 235 113 388 264 498 489 65 131 103
264 118 409 7 76 7 249 0 296 -4 19 -9 53 -12 75 -17 108 -88 314 -115 330 -6
4 -8 10 -5 15 3 4 -2 13 -10 20 -8 7 -15 19 -15 26 0 8 -4 14 -10 14 -5 0 -10
5 -10 11 0 18 -123 170 -177 219 -84 77 -113 100 -138 112 -14 6 -25 14 -25
18 0 10 -178 97 -248 121 -65 22 -148 44 -207 55 -56 9 -231 11 -285 3z"/>
<path d="M4325 9792 c-1 -2 -18 -6 -37 -8 -51 -8 -69 -11 -123 -24 -27 -6 -57
-13 -65 -15 -8 -2 -34 -10 -58 -19 -23 -8 -46 -16 -50 -16 -4 -1 -48 -21 -99
-44 -206 -98 -369 -257 -470 -461 -30 -61 -80 -186 -88 -221 -31 -139 -51
-243 -49 -261 1 -13 -1 -23 -5 -23 -8 0 -6 -242 3 -300 9 -56 46 -209 56 -229
14 -29 44 -96 45 -101 1 -5 21 -39 64 -105 63 -97 199 -228 296 -285 22 -13
42 -27 45 -30 3 -4 20 -13 38 -21 17 -8 32 -17 32 -21 0 -5 8 -8 18 -8 10 0
22 -4 28 -10 17 -17 227 -88 315 -106 85 -18 383 -28 404 -14 6 4 26 10 45 13
30 5 57 11 95 21 140 35 301 113 406 195 187 147 341 377 399 591 12 47 25 94
29 105 16 43 21 273 8 355 -22 144 -73 304 -135 425 -41 81 -45 87 -91 150
-176 242 -460 409 -781 460 -47 8 -268 13 -275 7z"/>
<path d="M9000 12498 c-28 -13 -110 -49 -220 -99 -41 -18 -78 -37 -81 -42 -3
-5 -10 -9 -15 -9 -15 -1 -53 -17 -125 -53 -38 -19 -69 -31 -69 -27 0 4 -4 1
-9 -6 -4 -7 -15 -14 -23 -16 -8 -1 -27 -9 -41 -19 -15 -9 -33 -17 -41 -17 -8
0 -16 -3 -18 -7 -3 -7 -104 -59 -118 -61 -3 -1 -72 -34 -155 -75 -82 -41 -165
-80 -182 -88 -18 -8 -33 -17 -33 -21 0 -5 -5 -8 -12 -8 -6 0 -86 -37 -177 -81
-548 -270 -732 -359 -741 -359 -5 0 -10 -4 -10 -10 0 -5 -4 -10 -10 -10 -5 0
-83 -36 -173 -80 -90 -44 -167 -80 -170 -80 -3 0 -29 -13 -57 -30 -27 -16 -50
-27 -50 -25 0 3 -17 -4 -37 -15 -21 -11 -83 -40 -138 -64 -55 -25 -101 -49
-102 -53 -2 -5 11 -14 29 -21 248 -98 402 -125 709 -126 143 0 147 0 187 27
23 15 46 27 52 27 5 0 10 4 10 8 0 5 12 15 28 23 15 8 32 19 39 25 6 6 35 26
65 45 29 18 55 37 56 41 2 5 10 8 18 8 8 0 14 5 14 12 0 6 3 9 6 5 3 -3 13 1
22 9 10 8 96 65 192 128 96 63 180 119 187 125 7 6 14 11 17 11 3 0 48 29 101
65 53 36 99 65 103 65 3 0 20 11 38 25 18 14 37 25 43 25 6 0 11 3 11 8 0 4
20 18 45 32 25 14 45 28 45 32 0 5 4 8 9 8 8 0 343 209 367 229 6 5 24 16 40
25 16 9 45 27 65 39 67 42 324 195 359 214 87 48 100 58 100 81 0 12 -4 22 -8
22 -5 0 -15 12 -23 28 -8 15 -22 36 -31 46 -10 11 -18 25 -18 31 0 11 -32 46
-41 44 -2 0 -15 -5 -29 -11z"/>
</g>
</svg>
