<?xml version="1.0" encoding="UTF-8"?><svg id="Layer_2" xmlns="http://www.w3.org/2000/svg" viewBox="0 0 76.2 96.83"><defs><style>.cls-1{fill:#4671b8;}.cls-2{fill:#050606;}</style></defs><g id="Layer_1-2"><polygon class="cls-1" points="16.6 0 36.65 48.25 .8 48.14 24.59 44.85 16.6 0"/><polygon class="cls-1" points="34.96 96.83 15.43 50.28 51.13 50.28 27.48 53.68 34.96 96.83"/><g><path class="cls-2" d="M48.69,58.01l-3.21,12h-2.27l-2.39-8.82-2.17,8.82h-2.22l-3.28-12h2.29l2.32,8.75,2.16-8.75h2.19l2.39,8.75,2.28-8.75h1.91Z"/><path class="cls-2" d="M57.98,70.01h-7.8v-12h7.72v1.78h-5.55v3.25h4.46v1.74h-4.46v3.36h5.63v1.86Z"/><path class="cls-2" d="M67.23,70.01h-7.38v-12h2.28v10.04h5.11v1.96Z"/><path class="cls-2" d="M76.2,70.01h-7.38v-12h2.28v10.04h5.11v1.96Z"/></g><g><path class="cls-2" d="M7.79,40.59H0v-12H7.72v1.78H2.16v3.25H6.63v1.74H2.16v3.36H7.79v1.86Z"/><path class="cls-2" d="M17.04,40.59h-7.38v-12h2.28v10.04h5.11v1.96Z"/></g></g></svg>